<svg width="22" height="34" viewBox="0 0 22 34" fill="none" xmlns="http://www.w3.org/2000/svg">
<mask id="mask0_1_166" style="mask-type:luminance" maskUnits="userSpaceOnUse" x="0" y="0" width="22" height="34">
<path d="M0.75 0.0885315H21.75V33.0885H0.75V0.0885315Z" fill="white"/>
</mask>
<g mask="url(#mask0_1_166)">
<path d="M13.474 0.0104065C13.0209 0.0104065 12.6094 0.276031 12.4271 0.68749L10.6563 4.61457H1.95835C1.32294 4.61457 0.807312 5.1302 0.807312 5.76561V13.4427C0.807312 14.0781 1.32294 14.5937 1.95835 14.5937H6.16669L0.90627 26.2708C0.838561 26.4167 0.807312 26.5781 0.807312 26.7448V31.8594C0.807312 32.4948 1.32294 33.0104 1.95835 33.0104H8.86981C9.32294 33.0104 9.7344 32.7448 9.91669 32.3333L11.6875 28.4062H20.3854C21.0209 28.4062 21.5365 27.8906 21.5365 27.2552V19.5781C21.5365 18.9427 21.0209 18.4271 20.3854 18.4271H16.1771L21.4375 6.74999C21.5052 6.60416 21.5365 6.4427 21.5365 6.27603V1.16145C21.5365 0.526031 21.0209 0.0104065 20.3854 0.0104065H13.474Z" fill="white"/>
</g>
</svg>
