<svg width="35" height="35" viewBox="0 0 35 35" fill="none" xmlns="http://www.w3.org/2000/svg">
<mask id="mask0_1_233" style="mask-type:luminance" maskUnits="userSpaceOnUse" x="0" y="0" width="35" height="35">
<path d="M0.255188 0.338531H34.2552V34.3385H0.255188V0.338531Z" fill="white"/>
</mask>
<g mask="url(#mask0_1_233)">
<path d="M10.25 0.338531C4.76561 0.338531 0.255188 4.84374 0.255188 10.3385V24.3437C0.255188 29.8281 4.7604 34.3385 10.25 34.3385H24.2552C29.7448 34.3385 34.2552 29.8333 34.2552 24.3437V10.3385C34.2552 4.84895 29.75 0.338531 24.2552 0.338531H10.25ZM10.25 3.43228H24.2552C28.0781 3.43228 31.1614 6.51562 31.1614 10.3385V24.3437C31.1614 28.1614 28.0781 31.25 24.2552 31.25H10.25C6.43227 31.25 3.34373 28.1614 3.34373 24.3437V10.3385C3.34373 6.51562 6.43227 3.43228 10.25 3.43228ZM26.3802 6.81249C25.6041 6.81249 24.9844 7.43228 24.9844 8.21353C24.9844 8.98957 25.6041 9.60937 26.3802 9.60937C27.1614 9.60937 27.7812 8.98957 27.7812 8.21353C27.7812 7.43228 27.1614 6.81249 26.3802 6.81249ZM17.2552 8.0677C12.151 8.0677 7.98435 12.2396 7.98435 17.3385C7.98435 22.4427 12.151 26.6094 17.2552 26.6094C22.3541 26.6094 26.526 22.4427 26.526 17.3385C26.526 12.2396 22.3541 8.0677 17.2552 8.0677ZM17.2552 11.1562C20.6875 11.1562 23.4375 13.9062 23.4375 17.3385C23.4375 20.776 20.6875 23.5208 17.2552 23.5208C13.8177 23.5208 11.0729 20.776 11.0729 17.3385C11.0729 13.9062 13.8177 11.1562 17.2552 11.1562Z" fill="white"/>
</g>
</svg>
