<svg width="38" height="38" viewBox="0 0 38 38" fill="none" xmlns="http://www.w3.org/2000/svg">
<mask id="mask0_1_346" style="mask-type:luminance" maskUnits="userSpaceOnUse" x="0" y="0" width="38" height="38">
<path d="M0.729187 0.265625H37.7292V37.2656H0.729187V0.265625Z" fill="white"/>
</mask>
<g mask="url(#mask0_1_346)">
<path d="M19.2292 0.265625C9.01565 0.265625 0.729187 8.54687 0.729187 18.7656C0.729187 26.3385 5.28648 32.849 11.8021 35.7083C11.75 34.4167 11.7969 32.8646 12.125 31.4583C12.4792 29.9583 14.5052 21.3802 14.5052 21.3802C14.5052 21.3802 13.9167 20.1979 13.9167 18.4531C13.9167 15.7135 15.5052 13.6667 17.4844 13.6667C19.1667 13.6667 19.9792 14.9271 19.9792 16.4427C19.9792 18.1354 18.9011 20.6615 18.3438 23.0052C17.8802 24.9688 19.3281 26.5677 21.2656 26.5677C24.7709 26.5677 27.1302 22.0677 27.1302 16.7344C27.1302 12.6823 24.4011 9.64583 19.4323 9.64583C13.8229 9.64583 10.3229 13.8281 10.3229 18.5052C10.3229 20.1146 10.8021 21.2552 11.5469 22.1354C11.8854 22.5365 11.9323 22.6979 11.8125 23.1615C11.724 23.5052 11.5209 24.3229 11.4323 24.651C11.3125 25.1198 10.9323 25.2865 10.5052 25.1094C7.9219 24.0573 6.71877 21.224 6.71877 18.0469C6.71877 12.7917 11.1511 6.48958 19.9427 6.48958C27.0052 6.48958 31.6511 11.599 31.6511 17.0833C31.6511 24.3438 27.6198 29.7656 21.6719 29.7656C19.6719 29.7656 17.7969 28.6823 17.1511 27.4583C17.1511 27.4583 16.0781 31.7188 15.849 32.5417C15.4584 33.9688 14.6875 35.3958 13.9896 36.5052C15.6511 36.9948 17.4115 37.2656 19.2292 37.2656C29.4479 37.2656 37.7292 28.9844 37.7292 18.7656C37.7292 8.54687 29.4479 0.265625 19.2292 0.265625Z" fill="white"/>
</g>
</svg>
