<svg width="33" height="36" viewBox="0 0 33 36" fill="none" xmlns="http://www.w3.org/2000/svg">
<mask id="mask0_1_400" style="mask-type:luminance" maskUnits="userSpaceOnUse" x="0" y="0" width="33" height="36">
<path d="M0.666687 0H32.6667V36H0.666687V0Z" fill="white"/>
</mask>
<g mask="url(#mask0_1_400)">
<mask id="mask1_1_400" style="mask-type:luminance" maskUnits="userSpaceOnUse" x="1" y="1" width="32" height="35">
<path fill-rule="evenodd" clip-rule="evenodd" d="M15.625 2.76042C15.625 1.90625 16.3125 1.21875 17.1667 1.21875H21.7917C22.6406 1.21875 23.3333 1.90625 23.3333 2.76042C23.3333 7.01563 26.7813 10.4688 31.0417 10.4688C31.8906 10.4688 32.5833 11.1563 32.5833 12.0104V16.6354C32.5833 17.4844 31.8906 18.1771 31.0417 18.1771C28.2344 18.1771 25.599 17.4219 23.3333 16.1094V24.3438C23.3333 30.3021 18.5 35.1354 12.5417 35.1354C6.57813 35.1354 1.75 30.3021 1.75 24.3438C1.75 18.3802 6.57813 13.5521 12.5417 13.5521C13.3906 13.5521 14.0833 14.2396 14.0833 15.0938V19.7188C14.0833 20.5677 13.3906 21.2604 12.5417 21.2604C10.8385 21.2604 9.45833 22.6406 9.45833 24.3438C9.45833 26.0469 10.8385 27.4271 12.5417 27.4271C14.2448 27.4271 15.625 26.0469 15.625 24.3438V2.76042ZM18.7083 4.30208V24.3438C18.7083 27.7448 15.9479 30.5104 12.5417 30.5104C9.13542 30.5104 6.375 27.7448 6.375 24.3438C6.375 21.4688 8.33854 19.0521 11 18.3698V16.7865C7.47917 17.5 4.83333 20.6146 4.83333 24.3438C4.83333 28.599 8.28125 32.0521 12.5417 32.0521C16.7969 32.0521 20.25 28.599 20.25 24.3438V13.099C20.25 12.4896 20.6042 11.9427 21.1615 11.6927C21.7187 11.4427 22.3646 11.5469 22.8177 11.9531C24.6406 13.5833 26.9479 14.6771 29.5 14.9948V13.4427C24.7708 12.7656 21.0365 9.02604 20.3594 4.30208H18.7083Z" fill="white"/>
</mask>
<g mask="url(#mask1_1_400)">
<path d="M1.75 1.21875V35.1354H32.5833V1.21875H1.75Z" fill="white"/>
</g>
</g>
</svg>
