<svg width="41" height="41" viewBox="0 0 41 41" fill="none" xmlns="http://www.w3.org/2000/svg">
<mask id="mask0_1_284" style="mask-type:luminance" maskUnits="userSpaceOnUse" x="0" y="0" width="41" height="41">
<path d="M0.208313 0.286438H40.2083V40.2864H0.208313V0.286438Z" fill="white"/>
</mask>
<g mask="url(#mask0_1_284)">
<path d="M20.2083 0.286438C9.16144 0.286438 0.208313 9.23956 0.208313 20.2864C0.208313 31.3333 9.16144 40.2864 20.2083 40.2864C31.2552 40.2864 40.2083 31.3333 40.2083 20.2864C40.1875 9.23956 31.2396 0.286438 20.2083 0.286438ZM31.8802 15.7812C31.8802 15.7812 32.2239 23.4375 26.4062 28.1823C17.6979 35.2656 8.29165 29.5156 8.29165 29.5156C8.29165 29.5156 10.5781 29.5469 12.6041 29.0104C14.6146 28.4739 16.0677 27.1614 16.0677 27.1614C16.0677 27.1614 13.8698 26.7083 12.7291 25.8802C11.5833 25.0469 11.1354 23.4531 11.1354 23.4531C11.1354 23.4531 11.8958 23.5208 12.3646 23.5052C12.8489 23.4896 13.4219 23.2656 13.4219 23.2656C13.4219 23.2656 11.8437 23.0729 10.3698 21.4271C9.21352 20.1302 9.29685 17.9635 9.29685 17.9635C9.29685 17.9635 9.98956 18.3802 10.3541 18.4687C10.7187 18.5729 11.4271 18.5729 11.4271 18.5729C11.4271 18.5729 10.0416 17.7552 9.43748 15.625C8.82811 13.5156 9.98956 11.3698 9.98956 11.3698C9.98956 11.3698 12.0521 13.8594 15.0989 15.4531C18.1458 17.0469 21.0208 16.9948 21.0208 16.9948C21.0208 16.9948 20.6041 15.7291 21.3333 13.8594C22.0625 11.9896 23.7031 10.6406 26.2135 10.4479C28.7291 10.2396 30.3385 12.1458 30.3385 12.1458C30.3385 12.1458 31.1146 12.0104 32 11.6771C32.8802 11.3698 33.7656 10.9531 33.7656 10.9531C33.7656 10.9531 33.4531 11.9062 32.8489 12.651C32.2396 13.3958 31.5677 13.8437 31.5677 13.8437C31.5677 13.8437 32.3646 13.7916 33.1614 13.5677C33.9583 13.3437 34.3906 13.1146 34.3906 13.1146C33.4739 14.6406 31.8802 15.7812 31.8802 15.7812Z" fill="white"/>
</g>
</svg>
